<svg xmlns="http://www.w3.org/2000/svg" xml:space="preserve" fill-rule="evenodd" clip-rule="evenodd" image-rendering="optimizeQuality" shape-rendering="geometricPrecision" text-rendering="geometricPrecision" version="1.0" viewBox="0 0 1557.88 203.2">
  <defs>
    <style>
      .fil0,.fil1{fill:#009a00;fill-rule:nonzero}.fil1{fill:#f60}
    </style>
  </defs>
    <g id="Layer_x0020_1">
    <g id="_2659153084192">
      <path d="M1300.7 130.05c0 13.35-3.3 25.59-9.88 36.72-6.59 11.13-15.4 19.98-26.45 26.56-11.04 6.58-23.34 9.87-36.9 9.87-12.01 0-23.15-2.61-33.42-7.84-10.27-5.22-18.79-12.28-25.57-21.19-6.59 8.91-15.02 15.97-25.28 21.19-10.27 5.23-21.41 7.84-33.42 7.84-13.37 0-25.62-3.29-36.76-9.87-11.14-6.58-20-15.43-26.59-26.56-6.59-11.13-9.88-23.37-9.88-36.72V0h29.06v130.05c0 8.13 1.98 15.53 5.96 22.21 3.97 6.67 9.29 12 15.98 15.96 6.68 3.97 14.09 5.95 22.23 5.95 7.94 0 15.21-1.88 21.79-5.66 6.59-3.77 11.87-8.85 15.84-15.24 3.97-6.38 6.15-13.45 6.54-21.19V0h29.35v130.05c0 8.13 1.98 15.53 5.96 22.21 3.97 6.67 9.29 12 15.98 15.96 6.68 3.97 14.09 5.95 22.23 5.95s15.54-1.98 22.23-5.95c6.68-3.96 12.01-9.29 15.98-15.96 3.97-6.68 5.96-14.08 5.96-22.21V0h29.06v130.05zm-322.85-13.93h-142.1V87.09h142.1z" class="fil0"/>
        <path d="M1002.55 203.2H792.16V0h210.39v29.03H821.22v145.14h181.33zm-455.07 0h-29.06V0h14.53c14.14 0 29.49 2.71 46.06 8.13 16.56 5.42 33.17 13.06 49.84 22.93 16.66 9.87 32.4 21.63 47.22 35.27 14.82 13.65 27.55 28.79 38.21 45.43V0h29.06v203.2h-29.06c0-17.8-3.63-34.88-10.9-51.23-7.26-16.36-16.9-31.45-28.91-45.29-12.01-13.83-25.33-26.12-39.96-36.86-14.63-10.75-29.49-19.55-44.6-26.42-15.11-6.87-29.26-11.27-42.43-13.21V203.2zm-89.79-87.08h-142.1V87.09h142.1z" class="fil0"/>
        <path d="M482.39 203.2H272V0h210.39v29.03H301.06v145.14h181.33zm-247.59 0h-39.23l-61.02-58.05H45.33v-28.74h116.82c8.14 0 15.5-1.99 22.09-5.96 6.58-3.96 11.81-9.28 15.69-15.96 3.87-6.68 5.81-13.98 5.81-21.92 0-8.13-1.94-15.48-5.81-22.06-3.88-6.58-9.11-11.8-15.69-15.67-6.59-3.88-13.95-5.81-22.09-5.81H29.06V203.2H0V0h162.15c13.37 0 25.58 3.24 36.62 9.73 11.04 6.48 19.81 15.24 26.3 26.27 6.49 11.03 9.73 23.22 9.73 36.57 0 12-2.66 23.13-7.99 33.39-5.33 10.25-12.59 18.72-21.8 25.4-9.2 6.67-19.61 10.98-31.23 12.91l61.02 58.93z" class="fil0"/>
        <path d="M1533.17 116.12h-142.1V87.09h142.1z" class="fil1"/>
        <path d="M1557.87 203.2h-210.39V0h210.39v29.03h-181.33v145.14h181.33z" class="fil1"/>
    </g>
  </g>
</svg>
